<svg xmlns="http://www.w3.org/2000/svg" viewBox="0 0 48 48" fill="none">
  
  <g stroke="#C6CDD5" stroke-width="1.7" stroke-linecap="round" opacity="0.75" fill="none">
    <path d="M8 9 q-1.4 -1.8 0 -3.6 q1.4 -1.8 0 -3.6"></path>
    <path d="M13 9 q-1.4 -1.8 0 -3.6 q1.4 -1.8 0 -3.6"></path>
  </g>
  <path d="M3.5 13 h15 l-1.4 22.5 a3.2 3.2 0 0 1 -3.2 3 H8.1 a3.2 3.2 0 0 1 -3.2 -3 z" fill="#EEF1F4"></path>
  <path d="M2.5 11.5 h17 a1.4 1.4 0 0 1 1.4 1.5 l-0.15 1.6 a1 1 0 0 1 -1 0.9 H2.25 a1 1 0 0 1 -1 -0.9 L1.1 13 a1.4 1.4 0 0 1 1.4 -1.5 z" fill="#D7654B"></path>
  <rect x="4.4" y="22" width="10.5" height="6.5" rx="1.4" fill="#D7654B"></rect>
  
  <g stroke="#7A4A1E" stroke-width="2.2" stroke-linecap="round" fill="none">
    <path d="M30 20.5 v-2 a3.6 3.6 0 0 1 7.2 0 v2"></path>
    <path d="M37.2 20.5 v-2 a3.6 3.6 0 0 1 7.2 0 v2"></path>
  </g>
  <path d="M27.5 19.5 h19.5 a1.6 1.6 0 0 1 1.6 1.8 l-1.7 16.4 a3 3 0 0 1 -3 2.7 H30.6 a3 3 0 0 1 -3 -2.7 L25.9 21.3 a1.6 1.6 0 0 1 1.6 -1.8 z" fill="#C98A3E"></path>
  <path d="M27.5 19.5 h19.5 a1.6 1.6 0 0 1 1.6 1.8 l-0.42 4 H26.3 l-0.4 -4 a1.6 1.6 0 0 1 1.6 -1.8 z" fill="#E0A95C"></path>
  <circle cx="37" cy="31.5" r="4" fill="#fff" opacity="0.85"></circle>
  <path d="M35.3 31.4 l1.2 1.3 l2.3 -2.6" stroke="#C98A3E" stroke-width="1.5" fill="none" stroke-linecap="round" stroke-linejoin="round"></path>
</svg>