<svg xmlns="http://www.w3.org/2000/svg" viewBox="0 0 48 48" fill="none">
  
  <path d="M19 36 q-9 1 -10 -8 q-1 -7 5 -8" stroke="#4A535D" stroke-width="3.6" fill="none" stroke-linecap="round"></path>
  
  <path d="M14 14 h13 a2 2 0 0 1 2 2 v2 a8.5 8.5 0 0 1 -17 0 v-2 a2 2 0 0 1 2 -2 z" fill="#AEB6BF"></path>
  <path d="M14 14 h13 a2 2 0 0 1 2 2 v1.2 H12 V16 a2 2 0 0 1 2 -2 z" fill="#C6CDD5"></path>
  
  <circle cx="17" cy="19" r="1.7" fill="#3A424C"></circle>
  <circle cx="23.8" cy="19" r="1.7" fill="#3A424C"></circle>
  <circle cx="20.4" cy="22.6" r="2.1" fill="#3A424C"></circle>
  <circle cx="17" cy="25.2" r="1.5" fill="#3A424C"></circle>
  <circle cx="23.8" cy="25.2" r="1.5" fill="#3A424C"></circle>
  
  <rect x="16.5" y="26" width="8" height="11" rx="3" fill="#8A929B"></rect>
  <rect x="16.5" y="26" width="3.2" height="11" rx="1.6" fill="#AEB6BF"></rect>
  
  <g stroke="#E83B3B" stroke-width="5" stroke-linecap="round">
    <path d="M31 30 L43 42"></path>
    <path d="M43 30 L31 42"></path>
  </g>
</svg>