<svg xmlns="http://www.w3.org/2000/svg" viewBox="0 0 48 48" fill="none">
  <circle cx="24" cy="18" r="15" fill="#FFD23F" opacity="0.16"></circle>
  <g stroke="#FFC21A" stroke-width="2.4" stroke-linecap="round">
    <path d="M24 1 V5"></path>
    <path d="M8 7 L11 10"></path>
    <path d="M40 7 L37 10"></path>
    <path d="M3 21 H7"></path>
    <path d="M45 21 H41"></path>
  </g>
  <path d="M24 5 a11.5 11.5 0 0 1 6.5 21 q-1.4 1 -1.7 2.8 h-9.6 q-0.3 -1.8 -1.7 -2.8 A11.5 11.5 0 0 1 24 5 z" fill="#FFD23F"></path>
  <ellipse cx="18.5" cy="14" rx="2.6" ry="4.6" fill="#FFF2C4" opacity="0.85" transform="rotate(-22 18.5 14)"></ellipse>
  <path d="M21 21 l1.6 -4 h2.8 l1.6 4" stroke="#E8870A" stroke-width="1.6" fill="none" stroke-linecap="round" stroke-linejoin="round"></path>
  <rect x="18.5" y="29.6" width="11" height="3.2" rx="1" fill="#AEB6BF"></rect>
  <rect x="19.6" y="32.8" width="8.8" height="2.5" rx="0.6" fill="#8A929B"></rect>
  <rect x="20.6" y="35.3" width="6.8" height="2.5" rx="0.6" fill="#AEB6BF"></rect>
  <path d="M21.4 37.8 h5.2 l-1.1 2.4 a1.5 1.5 0 0 1 -3 0 z" fill="#8A929B"></path>
</svg>