<svg xmlns="http://www.w3.org/2000/svg" viewBox="0 0 48 48" fill="none">
  <rect x="3" y="9" width="22" height="30" rx="4.5" fill="#2A3340"></rect>
  <rect x="9.5" y="5.5" width="9" height="5" rx="2" fill="#2A3340"></rect>
  <rect x="5" y="11" width="18" height="26" rx="2.6" fill="#0E1620"></rect>
  <rect x="6.8" y="30.4" width="14.4" height="4.8" rx="1.4" fill="#46D62A"></rect>
  <rect x="6.8" y="24.4" width="14.4" height="5.2" rx="1.4" fill="#46D62A"></rect>
  <rect x="6.8" y="18.4" width="14.4" height="5.2" rx="1.4" fill="#46D62A"></rect>
  <rect x="6.8" y="13" width="14.4" height="4.6" rx="1.4" fill="#FFC21A"></rect>
  <g stroke="#FFD23F" stroke-width="1.8" stroke-linecap="round" opacity="0.55">
    <path d="M27.5 13 l3 1"></path>
    <path d="M27.5 18 h3"></path>
  </g>
  <path d="M33 6 h11 a0 0 0 0 1 0 0 v2.4 q0 5.6 -5.5 9.6 q5.5 4 5.5 9.6 V30 a0 0 0 0 1 0 0 H33 a0 0 0 0 1 0 0 v-2.4 q0 -5.6 5.5 -9.6 Q33 14 33 8.4 V6 z" fill="#D7DDE3" stroke="#8A929B" stroke-width="1.6" stroke-linejoin="round"></path>
  <rect x="31.5" y="5" width="14" height="2.6" rx="1.3" fill="#8A929B"></rect>
  <rect x="31.5" y="28.6" width="14" height="2.6" rx="1.3" fill="#8A929B"></rect>
  <path d="M35 9 h7 v0.8 q0 4 -3.5 6.6 Q35 13.8 35 9.8 z" fill="#FFC21A"></path>
  <path d="M38.5 20.5 q3.5 2.8 3.5 6.4 H35 q0 -3.6 3.5 -6.4 z" fill="#FFC21A"></path>
</svg>