<svg xmlns="http://www.w3.org/2000/svg" viewBox="0 0 48 48" fill="none">
  <path d="M4 23 Q5 9 24 6 Q43 9 44 23 q-2.5 3 -5 0 q-2.5 3 -5 0 q-2.5 3 -5 0 q-2.5 3 -5 0 q-2.5 3 -5 0 q-2.5 3 -5 0 q-2.5 3 -5 0 q-2.5 3 -5 0 Z" fill="#2EA019"></path>
  <path d="M4 23 Q5 11 24 7 Q40 10 44 21 q-2.5 2 -5 1 q-2.5 2 -5 0 q-2.5 2 -5 -0.5 q-2.5 2 -5 0 q-2.5 2 -5 0 q-2.5 2 -5 0 q-2.5 2 -5 0 q-2.5 2 -5 0.5 Z" fill="#46D62A"></path>
  <path d="M9 19 Q11 11 24 8 Q33 10 38 15" stroke="#A6F26C" stroke-width="2" fill="none" opacity="0.7" stroke-linecap="round"></path>
  <g stroke="#1C6B12" stroke-width="1.3" opacity="0.45" fill="none" stroke-linecap="round">
    <path d="M24 7 L10 21"></path>
    <path d="M24 7 L17 22"></path>
    <path d="M24 7 V22.5"></path>
    <path d="M24 7 L31 22"></path>
    <path d="M24 7 L38 21"></path>
  </g>
  <rect x="22.4" y="2.5" width="3.2" height="5" rx="1.6" fill="#1C6B12"></rect>
  <path d="M24 23 V40 a4.5 4.5 0 0 0 9 0" stroke="#8A929B" stroke-width="2.8" fill="none" stroke-linecap="round"></path>
  <path d="M24 23 V40 a4.5 4.5 0 0 0 9 0" stroke="#C6CDD5" stroke-width="1" fill="none" stroke-linecap="round" opacity="0.6"></path>
</svg>