<?xml version="1.0" encoding="UTF-8"?> <svg xmlns="http://www.w3.org/2000/svg" width="272" height="46" viewBox="0 0 272 46" fill="none"><path d="M23 46.0001V23H46.0076L23 46.0001Z" fill="#00CFE8"></path><path d="M23 0L0 23.0001H23L46.0076 0H23Z" fill="#00CFE8"></path><path d="M78.2673 15.3436L64.107 30.7864H79.0917L77.2215 34.5193H60.3513C59.2673 34.5345 58.3665 33.5498 58.3436 32.3208C58.3284 31.7483 58.5268 31.1528 58.8704 30.6643L73.0307 15.2062H59.8551L57.9849 11.4963H76.794C77.878 11.481 78.8016 12.4657 78.8016 13.6948C78.8169 14.2673 78.6184 14.8627 78.2749 15.3513L78.2673 15.3436Z" fill="#FAFEFF"></path><path d="M82.0459 34.5199L93.0383 12.6419C93.397 11.9015 94.0764 11.4893 94.7635 11.4893C95.4505 11.4893 96.1299 11.9167 96.4734 12.6267C98.8551 17.3748 101.237 22.1229 103.618 26.871L107.466 34.5275H102.886L100.962 30.7183H93.3741L95.1986 27.0695H99.1375L94.7482 18.3442C92.0688 23.703 89.3131 29.1687 86.6337 34.5275H82.0535L82.0459 34.5199Z" fill="#FAFEFF"></path><path d="M127.42 11.4813C131.939 11.4813 134.092 14.4355 134.092 18.0385V20.1378C134.092 22.9622 132.748 25.4126 129.97 26.3134L130.252 26.8554L134.061 34.4585L134.092 34.5043H129.489L125.794 27.1149L125.58 26.6874H120.473L122.344 22.9546H125.924C128.206 22.9546 130.099 22.2447 130.099 19.092C130.099 15.9393 128.214 15.1836 125.924 15.1836H116.412V34.5043H112.42V11.4736H127.42V11.4813Z" fill="#FAFEFF"></path><path d="M149.206 25.8403L139.122 11.4814H143.87L151.198 22.2449L158.527 11.4814H163.29L153.206 25.8403V34.5121H149.214V25.8403H149.206Z" fill="#FAFEFF"></path><path d="M162.954 34.5199L173.946 12.6419C174.305 11.9015 174.985 11.4893 175.672 11.4893C176.359 11.4893 177.038 11.9167 177.382 12.6267C179.763 17.3748 182.145 22.1229 184.527 26.871L188.374 34.5275H183.794L181.87 30.7183H174.282L176.107 27.0695H180.046L175.656 18.3442C172.977 23.703 170.221 29.1687 167.542 34.5275H162.962L162.954 34.5199Z" fill="#FAFEFF"></path><path d="M203.29 30.8023L205.115 30.787C208.382 30.787 212.359 30.2756 212.359 25.0236V20.9626C212.359 15.7183 208.382 15.1992 205.115 15.1992H197.359V34.5199H193.367V11.4893H207.267C213.412 11.4893 216.351 15.4969 216.351 20.4129V25.6038C216.351 30.5122 213.412 34.5275 207.267 34.5275H201.42L203.29 30.8176V30.8023Z" fill="#FAFEFF"></path><path d="M226.977 11.4814H222.985V34.5121H226.977V11.4814Z" fill="#FAFEFF"></path><path d="M244.428 34.5122H239.42L231.58 24.1916C231.046 23.4893 231.046 22.5198 231.58 21.8252L239.42 11.4893H244.428L235.687 23.0084L244.428 34.5199V34.5122Z" fill="#FAFEFF"></path><path d="M246.512 34.5199L257.504 12.6419C257.863 11.9015 258.542 11.4893 259.229 11.4893C259.916 11.4893 260.596 11.9167 260.939 12.6267C263.321 17.3748 265.703 22.1229 268.084 26.871L271.932 34.5275H267.351L265.428 30.7183H257.84L259.664 27.0695H263.603L259.214 18.3442C256.535 23.703 253.779 29.1687 251.099 34.5275H246.519L246.512 34.5199Z" fill="#FAFEFF"></path></svg> 